<svg width="1381" height="203" viewBox="0 0 1381 203" fill="none" xmlns="http://www.w3.org/2000/svg">
<g clip-path="url(#clip0_412_564)">
<path d="M56.0547 31C58.5769 31 60.7043 32.8786 61.0163 35.3815L74.5267 143.765C74.5782 144.177 74.9289 144.487 75.3447 144.487C75.6673 144.487 75.9603 144.299 76.0944 144.006L126.409 33.9215C127.223 32.1416 129 31 130.957 31H169.039C172.749 31 175.167 34.8985 173.518 38.222L98.6295 189.179C97.7854 190.881 96.0499 191.957 94.1504 191.957H41.7676C39.3186 191.957 37.2301 190.183 36.8336 187.766L12.0672 36.8095C11.5678 33.7656 13.9166 31 17.0012 31H56.0547Z" fill="#01378A"/>
<path d="M208.696 194.158C195.807 194.158 185.118 191.695 176.63 186.77C168.142 181.792 162.169 174.667 158.711 165.393C155.253 156.066 154.624 144.906 156.825 131.912C158.921 119.442 163.243 108.544 169.793 99.2182C176.395 89.8919 184.699 82.6352 194.707 77.4481C204.766 72.261 216.031 69.6675 228.501 69.6675C237.618 69.6675 245.608 71.0821 252.472 73.9115C259.388 76.7408 265.021 80.8538 269.369 86.2505C273.718 91.6472 276.652 98.1704 278.172 105.82C279.744 113.417 279.744 122.01 278.172 131.598L277.261 137.43C276.88 139.864 274.784 141.658 272.321 141.658H174.622C171.55 141.658 169.205 138.913 169.684 135.878L171.877 121.986C172.261 119.556 174.356 117.766 176.816 117.766H236.148C238.62 117.766 240.823 115.945 240.64 113.479C240.51 111.736 240.105 110.126 239.426 108.649C238.273 105.977 236.413 103.907 233.846 102.44C231.331 100.921 228.292 100.161 224.729 100.161C221.166 100.161 217.813 100.921 214.669 102.44C211.578 103.96 208.932 106.082 206.731 108.806C204.583 111.531 203.142 114.727 202.409 118.394L197.693 143.544C197.064 147.421 197.3 150.879 198.4 153.918C199.501 156.957 201.413 159.341 204.138 161.07C206.862 162.799 210.373 163.664 214.669 163.664C217.603 163.664 220.38 163.271 223 162.485C225.672 161.646 228.03 160.441 230.073 158.87C231.371 157.864 232.508 156.727 233.485 155.46C234.602 154.01 236.242 152.975 238.071 152.975H267.749C271.17 152.975 273.575 156.34 272.107 159.429C269.385 165.154 265.775 170.285 261.274 174.824C255.197 180.954 247.704 185.722 238.797 189.128C229.942 192.481 219.909 194.158 208.696 194.158Z" fill="#01378A"/>
<path d="M340.829 124.053L330.208 187.779C329.806 190.19 327.72 191.957 325.276 191.957H292.031C288.941 191.957 286.591 189.183 287.099 186.135L305.552 75.4173C305.953 73.0064 308.039 71.2393 310.484 71.2393H341.541C344.627 71.2393 346.976 74.006 346.475 77.0504L343.792 93.3754C343.722 93.8013 344.05 94.1883 344.482 94.1883C344.748 94.1883 344.99 94.0372 345.11 93.8004C348.929 86.2845 354.444 80.4146 361.656 76.1907C369.043 71.8419 377.191 69.6675 386.098 69.6675C394.638 69.6675 401.738 71.6061 407.397 75.4833C413.055 79.3606 417.063 84.7048 419.421 91.5162C421.779 98.3275 422.198 106.134 420.679 114.936L408.488 187.782C408.085 190.192 406 191.957 403.557 191.957H370.309C367.219 191.957 364.869 189.183 365.377 186.135L375.724 124.053C376.719 118.08 375.986 113.391 373.523 109.985C371.113 106.579 367.131 104.877 361.577 104.877C358.067 104.877 354.844 105.662 351.91 107.234C349.029 108.754 346.618 110.954 344.68 113.836C342.794 116.665 341.51 120.071 340.829 124.053Z" fill="#01378A"/>
<path d="M515.081 71.2393C518.178 71.2393 520.529 74.0248 520.01 77.0773L516.365 98.5143C515.957 100.917 513.874 102.676 511.436 102.676H442.044C438.948 102.676 436.596 99.8908 437.115 96.8384L440.759 75.4014C441.167 72.9978 443.25 71.2393 445.688 71.2393H515.081ZM460.894 46.5008C461.293 44.0873 463.38 42.3173 465.826 42.3173H499.071C502.159 42.3173 504.509 45.0892 504.003 48.1359L486.578 153.132C486.317 154.809 486.369 156.224 486.736 157.376C487.102 158.477 487.836 159.315 488.936 159.891C490.089 160.415 491.608 160.677 493.495 160.677C494.752 160.677 496.298 160.52 498.132 160.206C500.339 159.764 502.379 161.406 502.472 163.655L503.392 185.981C503.487 188.288 501.991 190.363 499.745 190.901C498.25 191.259 496.559 191.637 494.674 192.036C491.007 192.874 486.736 193.424 481.863 193.686C471.698 194.158 463.42 193.083 457.028 190.464C450.688 187.844 446.287 183.757 443.824 178.203C441.414 172.597 440.995 165.602 442.567 157.219L460.894 46.5008Z" fill="#01378A"/>
<path d="M605.667 139.143L616.288 75.4173C616.69 73.0064 618.776 71.2393 621.22 71.2393H654.465C657.555 71.2393 659.905 74.0137 659.397 77.0613L640.944 187.779C640.542 190.19 638.456 191.957 636.012 191.957H604.954C601.869 191.957 599.52 189.19 600.02 186.146L602.704 169.818C602.774 169.393 602.447 169.008 602.017 169.008C601.75 169.008 601.506 169.162 601.388 169.401C597.67 176.915 592.18 182.81 584.918 187.084C577.583 191.381 569.409 193.529 560.397 193.529C551.962 193.529 544.915 191.59 539.256 187.713C533.597 183.836 529.589 178.491 527.231 171.68C524.874 164.869 524.402 157.062 525.817 148.26L538.007 75.4141C538.411 73.0046 540.496 71.2393 542.939 71.2393H576.187C579.276 71.2393 581.627 74.0137 581.119 77.0613L570.772 139.143C569.881 145.116 570.641 149.805 573.051 153.211C575.513 156.617 579.469 158.319 584.918 158.319C588.534 158.319 591.782 157.56 594.664 156.04C597.598 154.468 600.008 152.268 601.894 149.438C603.833 146.557 605.09 143.125 605.667 139.143Z" fill="#01378A"/>
<path d="M668.215 191.957C665.125 191.957 662.775 189.183 663.283 186.135L681.736 75.4173C682.137 73.0064 684.223 71.2393 686.668 71.2393H718.668C721.754 71.2393 724.103 74.006 723.602 77.0504L720.916 93.3935C720.847 93.8099 721.169 94.1883 721.591 94.1883C721.865 94.1883 722.113 94.0233 722.222 93.7718C725.807 85.4969 730.28 79.427 735.639 75.5619C741.088 71.6323 747.035 69.6675 753.48 69.6675C755.366 69.6675 757.173 69.8247 758.902 70.139C759.184 70.1804 759.464 70.2243 759.744 70.2709C762.28 70.6929 763.841 73.1714 763.411 75.7065L758.902 102.31C758.374 105.424 755.084 107.337 751.956 106.892C751.408 106.814 750.842 106.745 750.257 106.684C747.218 106.317 744.52 106.134 742.162 106.134C737.971 106.134 734.041 107.103 730.373 109.042C726.758 110.928 723.667 113.6 721.1 117.058C718.585 120.464 716.908 124.472 716.07 129.083L706.386 187.771C705.988 190.186 703.9 191.957 701.453 191.957H668.215Z" fill="#01378A"/>
<path d="M808.886 194.158C795.997 194.158 785.309 191.695 776.821 186.77C768.333 181.792 762.36 174.667 758.901 165.393C755.443 156.066 754.815 144.906 757.015 131.912C759.111 119.442 763.434 108.544 769.983 99.2182C776.585 89.8919 784.889 82.6352 794.897 77.4481C804.957 72.261 816.222 69.6675 828.692 69.6675C837.808 69.6675 845.798 71.0821 852.662 73.9115C859.578 76.7408 865.211 80.8538 869.56 86.2505C873.908 91.6472 876.843 98.1704 878.362 105.82C879.934 113.417 879.934 122.01 878.362 131.598L877.451 137.43C877.071 139.864 874.974 141.658 872.511 141.658H774.813C771.74 141.658 769.395 138.913 769.874 135.878L772.067 121.986C772.451 119.556 774.546 117.766 777.006 117.766H836.338C838.81 117.766 841.013 115.945 840.83 113.479C840.7 111.736 840.295 110.126 839.616 108.649C838.463 105.977 836.603 103.907 834.036 102.44C831.521 100.921 828.482 100.161 824.919 100.161C821.356 100.161 818.003 100.921 814.859 102.44C811.768 103.96 809.122 106.082 806.922 108.806C804.773 111.531 803.332 114.727 802.599 118.394L797.883 143.544C797.255 147.421 797.49 150.879 798.591 153.918C799.691 156.957 801.603 159.341 804.328 161.07C807.052 162.799 810.563 163.664 814.859 163.664C817.793 163.664 820.57 163.271 823.19 162.485C825.862 161.646 828.22 160.441 830.263 158.87C831.561 157.864 832.699 156.727 833.675 155.46C834.792 154.01 836.432 152.975 838.261 152.975H867.939C871.36 152.975 873.765 156.34 872.297 159.429C869.575 165.154 865.965 170.285 861.465 174.824C855.387 180.954 847.894 185.722 838.987 189.128C830.132 192.481 820.099 194.158 808.886 194.158Z" fill="#01378A"/>
<path d="M957.368 191.957H900.437C897.676 191.957 895.437 189.718 895.437 186.957V36C895.437 33.2385 897.676 31 900.437 31H956.739C973.296 31 987.6 34.2223 999.653 40.6668C1011.75 47.059 1021.08 56.2806 1027.63 68.3314C1034.23 80.3299 1037.53 94.7123 1037.53 111.478C1037.53 128.245 1034.25 142.653 1027.71 154.704C1021.16 166.703 1011.88 175.924 999.883 182.369C987.888 188.761 973.715 191.957 957.368 191.957ZM939.135 149.861C939.135 152.623 941.373 154.861 944.135 154.861H955.796C963.76 154.861 970.545 153.578 976.152 151.01C981.81 148.443 986.107 144.016 989.041 137.728C992.027 131.441 993.521 122.691 993.521 111.478C993.521 100.266 992.001 91.5162 988.962 85.2288C985.976 78.9414 981.575 74.514 975.759 71.9467C969.995 69.3793 962.922 68.0956 954.539 68.0956H944.135C941.373 68.0956 939.135 70.3342 939.135 73.0956V149.861Z" fill="#6B6D52"/>
<path d="M1192.01 31C1194.77 31 1197.01 33.2385 1197.01 36V186.957C1197.01 189.718 1194.77 191.957 1192.01 191.957H1163.18C1161.53 191.957 1159.99 191.147 1159.06 189.79L1102.57 107.659C1102.46 107.492 1102.27 107.391 1102.06 107.391C1101.72 107.391 1101.44 107.668 1101.44 108.01V186.957C1101.44 189.718 1099.21 191.957 1096.44 191.957H1062.75C1059.99 191.957 1057.75 189.718 1057.75 186.957V36C1057.75 33.2385 1059.99 31 1062.75 31H1092.19C1093.85 31 1095.4 31.8205 1096.33 33.191L1151.81 114.891C1151.97 115.116 1152.22 115.251 1152.49 115.251C1152.95 115.251 1153.32 114.883 1153.32 114.429V36C1153.32 33.2385 1155.55 31 1158.32 31H1192.01Z" fill="#6B6D52"/>
<path d="M1260.57 188.402C1259.93 190.513 1257.99 191.957 1255.78 191.957H1219.25C1215.85 191.957 1213.44 188.625 1214.51 185.39L1264.33 34.4327C1265.01 32.3839 1266.92 31 1269.08 31H1321.58C1323.74 31 1325.65 32.3839 1326.33 34.4327L1376.16 185.39C1377.23 188.625 1374.82 191.957 1371.41 191.957H1334.88C1332.68 191.957 1330.73 190.513 1330.1 188.402L1296.14 75.928C1296.04 75.5707 1295.71 75.3261 1295.33 75.3261C1294.96 75.3261 1294.63 75.5707 1294.52 75.928L1260.57 188.402ZM1250.69 133.454C1250.69 130.693 1252.93 128.454 1255.69 128.454H1334.34C1337.11 128.454 1339.34 130.693 1339.34 133.454V156.149C1339.34 158.91 1337.11 161.149 1334.34 161.149H1255.69C1252.93 161.149 1250.69 158.91 1250.69 156.149V133.454Z" fill="#6B6D52"/>
<g style="mix-blend-mode:screen">
<mask id="mask0_412_564" style="mask-type:luminance" maskUnits="userSpaceOnUse" x="0" y="0" width="1381" height="203">
<path d="M1381 0H0V203H1381V0Z" fill="white"/>
</mask>
<g mask="url(#mask0_412_564)">
<g style="mix-blend-mode:multiply">
<mask id="mask1_412_564" style="mask-type:alpha" maskUnits="userSpaceOnUse" x="-307" y="-41" width="2050" height="170">
<path d="M1743 44C1743 90.9442 1284.09 129 718 129C151.908 129 -307 90.9442 -307 44C-307 -2.9442 151.908 -41 718 -41C1284.09 -41 1743 -2.9442 1743 44Z" fill="white" fill-opacity="0.5"/>
</mask>
<g mask="url(#mask1_412_564)">
<path d="M56.6322 31.0426C59.1544 31.0426 61.2818 32.9212 61.5938 35.4241L75.1042 143.808C75.1557 144.22 75.5064 144.53 75.9222 144.53C76.2448 144.53 76.5378 144.342 76.6719 144.049L126.987 33.9641C127.801 32.1842 129.578 31.0426 131.535 31.0426H169.617C173.327 31.0426 175.745 34.9411 174.096 38.2646L99.207 189.222C98.3629 190.924 96.6274 192 94.7279 192H42.3451C39.8961 192 37.8076 190.226 37.4111 187.809L12.6447 36.8521C12.1453 33.8082 14.4941 31.0426 17.5787 31.0426H56.6322Z" fill="#5375A6"/>
<path d="M209.273 194.201C196.384 194.201 185.695 191.738 177.207 186.813C168.719 181.835 162.746 174.71 159.288 165.436C155.83 156.109 155.201 144.949 157.402 131.955C159.498 119.485 163.82 108.587 170.37 99.2608C176.972 89.9345 185.276 82.6778 195.284 77.4907C205.343 72.3036 216.608 69.7101 229.078 69.7101C238.195 69.7101 246.185 71.1247 253.049 73.9541C259.965 76.7834 265.598 80.8964 269.946 86.2931C274.295 91.6898 277.229 98.213 278.749 105.863C280.321 113.46 280.321 122.053 278.749 131.641L277.838 137.473C277.457 139.907 275.361 141.701 272.898 141.701H175.199C172.127 141.701 169.782 138.956 170.261 135.921L172.454 122.029C172.838 119.599 174.933 117.809 177.393 117.809H236.725C239.197 117.809 241.4 115.988 241.217 113.522C241.087 111.779 240.682 110.169 240.003 108.692C238.85 106.02 236.99 103.95 234.423 102.483C231.908 100.964 228.869 100.204 225.306 100.204C221.743 100.204 218.39 100.964 215.246 102.483C212.155 104.003 209.509 106.125 207.308 108.849C205.16 111.574 203.719 114.77 202.986 118.437L198.27 143.587C197.641 147.464 197.877 150.922 198.977 153.961C200.078 157 201.99 159.384 204.715 161.113C207.439 162.842 210.95 163.707 215.246 163.707C218.18 163.707 220.957 163.314 223.577 162.528C226.249 161.689 228.607 160.484 230.65 158.913C231.948 157.907 233.085 156.77 234.062 155.503C235.179 154.053 236.819 153.018 238.648 153.018H268.326C271.747 153.018 274.152 156.383 272.684 159.472C269.962 165.197 266.352 170.328 261.851 174.867C255.774 180.997 248.281 185.765 239.374 189.171C230.519 192.524 220.486 194.201 209.273 194.201Z" fill="#5375A6"/>
<path d="M341.407 124.096L330.786 187.822C330.384 190.233 328.298 192 325.854 192H292.609C289.519 192 287.169 189.226 287.677 186.178L306.13 75.4599C306.531 73.049 308.617 71.2819 311.062 71.2819H342.119C345.205 71.2819 347.554 74.0486 347.053 77.093L344.37 93.418C344.3 93.8439 344.628 94.2309 345.06 94.2309C345.326 94.2309 345.568 94.0798 345.688 93.843C349.507 86.3271 355.022 80.4572 362.234 76.2333C369.621 71.8845 377.769 69.7101 386.676 69.7101C395.216 69.7101 402.316 71.6487 407.975 75.5259C413.633 79.4032 417.641 84.7474 419.999 91.5588C422.357 98.3701 422.776 106.177 421.257 114.979L409.066 187.825C408.663 190.235 406.578 192 404.135 192H370.887C367.797 192 365.447 189.226 365.955 186.178L376.302 124.096C377.297 118.123 376.564 113.434 374.101 110.028C371.691 106.622 367.709 104.92 362.155 104.92C358.645 104.92 355.422 105.705 352.488 107.277C349.607 108.797 347.196 110.997 345.258 113.879C343.372 116.708 342.088 120.114 341.407 124.096Z" fill="#5375A6"/>
<path d="M515.658 71.2819C518.755 71.2819 521.107 74.0674 520.588 77.1199L516.943 98.5569C516.535 100.96 514.452 102.719 512.014 102.719H442.622C439.526 102.719 437.174 99.9334 437.693 96.881L441.337 75.444C441.745 73.0404 443.828 71.2819 446.266 71.2819H515.658ZM461.472 46.5434C461.871 44.1299 463.958 42.3599 466.404 42.3599H499.649C502.737 42.3599 505.087 45.1318 504.581 48.1785L487.156 153.175C486.895 154.852 486.947 156.267 487.314 157.419C487.68 158.52 488.414 159.358 489.514 159.934C490.667 160.458 492.186 160.72 494.073 160.72C495.33 160.72 496.876 160.563 498.71 160.249C500.917 159.807 502.957 161.449 503.05 163.698L503.97 186.024C504.065 188.331 502.569 190.406 500.323 190.944C498.828 191.302 497.137 191.68 495.252 192.079C491.584 192.917 487.314 193.467 482.441 193.729C472.276 194.201 463.998 193.126 457.606 190.507C451.266 187.887 446.865 183.8 444.402 178.246C441.992 172.64 441.573 165.645 443.145 157.262L461.472 46.5434Z" fill="#5375A6"/>
<path d="M606.244 139.186L616.865 75.4599C617.267 73.049 619.353 71.2819 621.797 71.2819H655.042C658.132 71.2819 660.482 74.0563 659.974 77.1039L641.521 187.822C641.119 190.233 639.033 192 636.589 192H605.531C602.446 192 600.097 189.233 600.597 186.189L603.281 169.861C603.351 169.436 603.024 169.051 602.594 169.051C602.327 169.051 602.083 169.205 601.965 169.444C598.247 176.958 592.757 182.853 585.495 187.127C578.16 191.424 569.986 193.572 560.974 193.572C552.539 193.572 545.492 191.633 539.833 187.756C534.174 183.879 530.166 178.534 527.808 171.723C525.451 164.912 524.979 157.105 526.394 148.303L538.584 75.4567C538.988 73.0472 541.073 71.2819 543.516 71.2819H576.764C579.853 71.2819 582.204 74.0563 581.696 77.1039L571.349 139.186C570.458 145.159 571.218 149.848 573.628 153.254C576.09 156.66 580.046 158.362 585.495 158.362C589.111 158.362 592.359 157.603 595.241 156.083C598.175 154.511 600.585 152.311 602.471 149.481C604.41 146.6 605.667 143.168 606.244 139.186Z" fill="#5375A6"/>
<path d="M668.792 192C665.702 192 663.352 189.226 663.86 186.178L682.313 75.4599C682.714 73.049 684.8 71.2819 687.245 71.2819H719.245C722.331 71.2819 724.68 74.0486 724.179 77.093L721.493 93.4361C721.424 93.8525 721.746 94.2309 722.168 94.2309C722.442 94.2309 722.69 94.0659 722.799 93.8144C726.384 85.5395 730.857 79.4696 736.216 75.6045C741.665 71.6749 747.612 69.7101 754.057 69.7101C755.943 69.7101 757.75 69.8673 759.479 70.1816C759.761 70.223 760.041 70.2669 760.321 70.3135C762.857 70.7355 764.418 73.214 763.988 75.7491L759.479 102.353C758.951 105.467 755.661 107.38 752.533 106.935C751.985 106.857 751.419 106.788 750.834 106.727C747.795 106.36 745.097 106.177 742.739 106.177C738.548 106.177 734.618 107.146 730.95 109.085C727.335 110.971 724.244 113.643 721.677 117.101C719.162 120.507 717.485 124.515 716.647 129.126L706.963 187.814C706.565 190.229 704.477 192 702.03 192H668.792Z" fill="#5375A6"/>
<path d="M809.464 194.201C796.575 194.201 785.887 191.738 777.399 186.813C768.911 181.835 762.938 174.71 759.479 165.436C756.021 156.109 755.393 144.949 757.593 131.955C759.689 119.485 764.012 108.587 770.561 99.2608C777.163 89.9345 785.467 82.6778 795.475 77.4907C805.535 72.3036 816.8 69.7101 829.27 69.7101C838.386 69.7101 846.376 71.1247 853.24 73.9541C860.156 76.7834 865.789 80.8964 870.138 86.2931C874.486 91.6898 877.421 98.213 878.94 105.863C880.512 113.46 880.512 122.053 878.94 131.641L878.029 137.473C877.649 139.907 875.552 141.701 873.089 141.701H775.391C772.318 141.701 769.973 138.956 770.452 135.921L772.645 122.029C773.029 119.599 775.124 117.809 777.584 117.809H836.916C839.388 117.809 841.591 115.988 841.408 113.522C841.278 111.779 840.873 110.169 840.194 108.692C839.041 106.02 837.181 103.95 834.614 102.483C832.099 100.964 829.06 100.204 825.497 100.204C821.934 100.204 818.581 100.964 815.437 102.483C812.346 104.003 809.7 106.125 807.5 108.849C805.351 111.574 803.91 114.77 803.177 118.437L798.461 143.587C797.833 147.464 798.068 150.922 799.169 153.961C800.269 157 802.181 159.384 804.906 161.113C807.63 162.842 811.141 163.707 815.437 163.707C818.371 163.707 821.148 163.314 823.768 162.528C826.44 161.689 828.798 160.484 830.841 158.913C832.139 157.907 833.277 156.77 834.253 155.503C835.37 154.053 837.01 153.018 838.839 153.018H868.517C871.938 153.018 874.343 156.383 872.875 159.472C870.153 165.197 866.543 170.328 862.043 174.867C855.965 180.997 848.472 185.765 839.565 189.171C830.71 192.524 820.677 194.201 809.464 194.201Z" fill="#5375A6"/>
<path d="M957.945 192H901.014C898.253 192 896.014 189.761 896.014 187V36.0426C896.014 33.2811 898.253 31.0426 901.014 31.0426H957.316C973.873 31.0426 988.177 34.2649 1000.23 40.7094C1012.33 47.1016 1021.66 56.3232 1028.21 68.374C1034.81 80.3725 1038.11 94.7549 1038.11 111.521C1038.11 128.288 1034.83 142.696 1028.29 154.747C1021.74 166.746 1012.46 175.967 1000.46 182.412C988.465 188.804 974.292 192 957.945 192ZM939.712 149.904C939.712 152.666 941.95 154.904 944.712 154.904H956.373C964.337 154.904 971.122 153.621 976.729 151.053C982.387 148.486 986.684 144.059 989.618 137.771C992.604 131.484 994.098 122.734 994.098 111.521C994.098 100.309 992.578 91.5588 989.539 85.2714C986.553 78.984 982.152 74.5566 976.336 71.9893C970.572 69.4219 963.499 68.1382 955.116 68.1382H944.712C941.95 68.1382 939.712 70.3768 939.712 73.1382V149.904Z" fill="#98998C"/>
<path d="M1192.59 31.0426C1195.35 31.0426 1197.59 33.2811 1197.59 36.0426V187C1197.59 189.761 1195.35 192 1192.59 192H1163.76C1162.11 192 1160.57 191.19 1159.64 189.833L1103.15 107.702C1103.04 107.535 1102.85 107.434 1102.64 107.434C1102.3 107.434 1102.02 107.711 1102.02 108.053V187C1102.02 189.761 1099.79 192 1097.02 192H1063.33C1060.57 192 1058.33 189.761 1058.33 187V36.0426C1058.33 33.2811 1060.57 31.0426 1063.33 31.0426H1092.77C1094.43 31.0426 1095.98 31.8631 1096.91 33.2336L1152.39 114.934C1152.55 115.159 1152.8 115.294 1153.07 115.294C1153.53 115.294 1153.9 114.926 1153.9 114.472V36.0426C1153.9 33.2811 1156.13 31.0426 1158.9 31.0426H1192.59Z" fill="#98998C"/>
<path d="M1261.15 188.445C1260.51 190.556 1258.57 192 1256.36 192H1219.83C1216.43 192 1214.02 188.668 1215.09 185.433L1264.91 34.4753C1265.59 32.4265 1267.5 31.0426 1269.66 31.0426H1322.16C1324.32 31.0426 1326.23 32.4265 1326.91 34.4753L1376.74 185.433C1377.81 188.668 1375.4 192 1371.99 192H1335.46C1333.26 192 1331.31 190.556 1330.68 188.445L1296.72 75.9706C1296.62 75.6133 1296.29 75.3687 1295.91 75.3687C1295.54 75.3687 1295.21 75.6133 1295.1 75.9706L1261.15 188.445ZM1251.27 133.497C1251.27 130.736 1253.51 128.497 1256.27 128.497H1334.92C1337.69 128.497 1339.92 130.736 1339.92 133.497V156.192C1339.92 158.953 1337.69 161.192 1334.92 161.192H1256.27C1253.51 161.192 1251.27 158.953 1251.27 156.192V133.497Z" fill="#98998C"/>
</g>
</g>
</g>
</g>
</g>
<defs>
<clipPath id="clip0_412_564">
<rect width="1381" height="203" fill="white"/>
</clipPath>
</defs>
</svg>
