<?xml version="1.0" encoding="UTF-8"?>
<svg xmlns:xodm="http://www.corel.com/coreldraw/odm/2003" xmlns="http://www.w3.org/2000/svg" xmlns:xlink="http://www.w3.org/1999/xlink" version="1.1" id="Layer_1" x="0px" y="0px" viewBox="0 0 2500 537" style="enable-background:new 0 0 2500 537;" xml:space="preserve">
<style type="text/css">
	.st0{fill-rule:evenodd;clip-rule:evenodd;}
	.st1{fill-rule:evenodd;clip-rule:evenodd;fill:url(#SVGID_1_);}
</style>
<g id="Layer_x0020_1">
	<g id="_1705051425728">
		<polygon class="st0" points="2344.9,371.6 2379.6,371.6 2379.6,225.6 2472.4,371.6 2500,371.6 2500,173.6 2499,166.5     2465.3,166.5 2465.3,312.4 2377.6,175.6 2372.4,166.5 2344.9,166.5   "></polygon>
		<path class="st0" d="M1132.7,196.1c9.2-1,19.4,0,27.6,2c9.2,2,13.3,6.1,17.3,13.3c7.1,13.3,9.2,34.7,9.2,52    c0,17.3,0,39.8-5.1,55.1c-6.1,17.3-16.3,22.4-36.7,23.5c-17.3,1-36.7,0-45.9-15.3c-12.2-20.4-11.2-84.7-3.1-107.1    c6.1-17.3,15.3-22.4,36.7-24.5V196.1z M1142.9,373.6c12.2,0,27.6-2,38.8-6.1c34.7-12.2,39.8-57.1,39.8-91.8    c0-37.8-1-90.8-40.8-105.1c-22.4-8.2-62.2-8.2-85.7,0c-34.7,13.3-39.8,59.2-39.8,93.9c0,27.6,1,61.2,15.3,81.6    c6.1,9.2,12.2,15.3,24.5,19.4c15.3,5.1,30.6,6.1,46.9,6.1L1142.9,373.6z"></path>
		<path class="st0" d="M1380.6,265.4h-41.8v-67.3c9.2,0,43.9-1,51,1c16.3,3.1,20.4,15.3,20.4,32.7c0,22.4-7.1,34.7-29.6,34.7V265.4z     M1305.1,371.6h33.7V292l39.8,1l35.7,78.6h33.7l-38.8-83.7c10.2-3.1,21.4-12.2,25.5-18.4c8.2-12.2,9.2-27.6,9.2-42.9    c0-17.3-4.1-32.7-13.3-42.9c-8.2-10.2-26.5-16.3-40.8-16.3h-86.7v205.1L1305.1,371.6z"></path>
		<polygon class="st0" points="853.1,285.8 938.8,285.8 939.8,371.6 973.5,371.6 973.5,167.5 966.3,166.5 939.8,166.5 938.8,255.2     853.1,255.2 853.1,166.5 818.4,166.5 818.4,371.6 853.1,371.6   "></polygon>
		<polygon class="st0" points="1772.4,285.8 1858.2,285.8 1859.2,371.6 1892.9,371.6 1892.9,167.5 1885.7,166.5 1859.2,166.5     1858.2,255.2 1772.4,255.2 1772.4,166.5 1737.8,166.5 1738.8,371.6 1772.4,371.6   "></polygon>
		<path class="st0" d="M2056.1,197.1l28.6,94.9h-57.1L2056.1,197.1z M2011.2,347.1l8.2-23.5h72.4l16.3,46.9l1,1h35.7l-66.3-205.1    h-42.9l-66.3,205.1h35.7l8.2-24.5H2011.2z"></path>
		<path class="st0" d="M1521.4,264.4c0,31.6,1,87.8,34.7,102c21.4,9.2,52,8.2,75.5,5.1c10.2-1,17.3-3.1,26.5-5.1v-26.5    c-20.4,2-35.7,3.1-56.1,3.1c-18.4,0-31.6-4.1-37.8-18.4c-8.2-16.3-7.1-41.8-7.1-60.2c0-19.4,0-54.1,21.4-64.3    c18.4-9.2,63.3-2,80.6,0v-25.5c0-2-11.2-4.1-13.3-4.1c-25.5-5.1-63.3-10.2-87.8,2c-10.2,5.1-16.3,11.2-21.4,20.4    c-10.2,18.4-14.3,46.9-14.3,71.4H1521.4z"></path>
		<polygon class="st0" points="593.9,197.1 652,197.1 652,371.6 686.7,371.6 686.7,197.1 744.9,197.1 744.9,166.5 593.9,166.5   "></polygon>
		<polygon class="st0" points="2220.4,370.5 2221.4,371.6 2253.1,371.6 2254.1,370.5 2254.1,167.5 2253.1,166.5 2221.4,166.5     2220.4,167.5   "></polygon>
		
			<linearGradient id="SVGID_1_" gradientUnits="userSpaceOnUse" x1="19.04" y1="277.4298" x2="478.04" y2="277.4298" gradientTransform="matrix(1.0204 0 0 -1.0204 -19.4286 552.1019)">
			<stop offset="0" style="stop-color:#00CCFF"></stop>
			<stop offset="1" style="stop-color:#33FF99"></stop>
		</linearGradient>
		<path class="st1" d="M137.8,138.9l118.4,120.4L468.4,0.1L137.8,138.9z M0,537.9l375.5-158.2L257.1,259.3L1,537.9H0z"></path>
	</g>
</g>
</svg>
